<svg xmlns="http://www.w3.org/2000/svg" width="36.326" height="36.326" viewBox="0 0 36.326 36.326"><path d="M15.75,0a15.75,15.75,0,0,0,0,31.5,15.567,15.567,0,0,0,7.47-1.845,4.5,4.5,0,0,0,.585.585l4.5,4.5a4.59,4.59,0,1,0,6.48-6.48l-4.5-4.5a4.5,4.5,0,0,0-.72-.585,15.538,15.538,0,0,0,1.98-7.47A15.767,15.767,0,0,0,15.8-.045Zm0,4.5A11.2,11.2,0,0,1,27,15.75a11.284,11.284,0,0,1-2.97,7.74l-.135.135a4.5,4.5,0,0,0-.585.585,11.26,11.26,0,0,1-7.6,2.835,11.25,11.25,0,0,1,0-22.5Z" transform="translate(0 0.045)" fill="#959595"/></svg>